<?xml version="1.0" encoding="utf-8"?>
<!-- Generator: Adobe Illustrator 16.0.0, SVG Export Plug-In . SVG Version: 6.00 Build 0)  -->
<!DOCTYPE svg PUBLIC "-//W3C//DTD SVG 1.1//EN" "http://www.w3.org/Graphics/SVG/1.1/DTD/svg11.dtd">
<svg version="1.1" id="Capa_1" xmlns="http://www.w3.org/2000/svg" xmlns:xlink="http://www.w3.org/1999/xlink" x="0px" y="0px"
	 width="841.89px" height="595.28px" viewBox="0 0 841.89 595.28" enable-background="new 0 0 841.89 595.28" xml:space="preserve">
<g>
	<path d="M635.417,495.692L509.07,364.28c32.22-32.344,52.191-76.896,52.191-126.009c0-98.491-80.093-178.584-178.579-178.584
		c-98.444,0-178.579,80.093-178.579,178.584c0,98.439,80.135,178.573,178.579,178.573c43.218,0,82.916-15.486,113.808-41.104
		l126.678,131.744c1.661,1.744,3.861,2.574,6.104,2.574c2.159,0,4.277-0.789,5.896-2.367
		C638.572,504.453,638.655,499.056,635.417,495.692L635.417,495.692z M382.683,399.822c-89.103,0-161.55-72.495-161.55-161.551
		c0-89.107,72.448-161.556,161.55-161.556s161.556,72.448,161.556,161.556C544.238,327.327,471.785,399.822,382.683,399.822
		L382.683,399.822z M382.683,399.822"/>
</g>
</svg>
