<?xml version="1.0" encoding="utf-8"?>
<!-- Generator: Adobe Illustrator 16.0.0, SVG Export Plug-In . SVG Version: 6.00 Build 0)  -->
<!DOCTYPE svg PUBLIC "-//W3C//DTD SVG 1.1//EN" "http://www.w3.org/Graphics/SVG/1.1/DTD/svg11.dtd">
<svg version="1.1" id="Capa_1" xmlns="http://www.w3.org/2000/svg" xmlns:xlink="http://www.w3.org/1999/xlink" x="0px" y="0px"
	 width="841.89px" height="595.28px" viewBox="0 0 841.89 595.28" enable-background="new 0 0 841.89 595.28" xml:space="preserve">
<g>
	<path d="M651.046,240.659h-48.01c-7.7,0-14.055-4.279-17.023-11.364c-2.923-7.149-1.438-14.664,3.988-20.091l33.955-33.955
		c4.964-4.963,7.701-11.597,7.701-18.642c0-7.051-2.737-13.69-7.701-18.706l-43.278-43.267c-9.974-9.979-27.368-9.979-37.341,0
		l-33.955,33.949c-5.428,5.427-12.942,6.958-20.039,3.989c-7.145-2.969-11.412-9.324-11.412-17.018v-48.01
		c0-14.571-11.828-26.4-26.394-26.4h-61.19c-14.559,0-26.388,11.829-26.388,26.4v48.01c0,7.694-4.273,14.049-11.364,17.018
		c-7.145,2.969-14.664,1.438-20.092-3.989l-33.949-33.949c-9.973-9.979-27.374-9.979-37.348,0l-43.272,43.267
		c-4.964,4.963-7.706,11.655-7.706,18.706c0,7.045,2.742,13.678,7.706,18.642l33.949,33.955c5.427,5.427,6.911,12.942,3.995,20.091
		c-2.922,7.085-9.324,11.364-17.018,11.364H190.85c-14.571,0-26.399,11.829-26.399,26.383v61.189
		c0,14.566,11.828,26.395,26.399,26.395h48.011c7.693,0,14.043,4.268,17.018,11.411c2.969,7.097,1.432,14.612-3.995,20.039
		l-33.949,33.955c-4.964,4.963-7.706,11.643-7.706,18.647c0,7.097,2.742,13.73,7.706,18.693l43.272,43.279
		c9.974,9.973,27.375,9.973,37.348,0l33.949-33.955c5.428-5.428,12.947-6.912,20.092-3.989c7.091,2.969,11.364,9.323,11.364,17.023
		v48.011c0,14.565,11.829,26.394,26.388,26.394h61.19c14.565,0,26.394-11.828,26.394-26.394V479.73
		c0-7.7,4.268-14.055,11.365-17.023c7.144-2.969,14.658-1.438,20.086,3.989l33.955,33.955c9.973,9.973,27.367,9.973,37.341,0
		l43.278-43.279c4.964-4.963,7.701-11.597,7.701-18.693c0-7.005-2.737-13.638-7.701-18.647l-33.955-33.955
		c-5.427-5.427-6.911-12.942-3.988-20.039c2.922-7.144,9.323-11.411,17.023-11.411h48.01c14.566,0,26.395-11.828,26.395-26.395
		v-61.189C677.44,252.488,665.612,240.659,651.046,240.659L651.046,240.659z M658.468,328.231c0,4.082-3.34,7.422-7.422,7.422
		h-48.01c-15.4,0-28.667,8.86-34.559,23.102c-5.938,14.24-2.829,29.873,8.118,40.773l33.909,33.955
		c2.922,2.876,2.922,7.561,0,10.483l-43.232,43.232c-2.923,2.876-7.607,2.922-10.484,0l-33.955-33.909
		c-10.9-10.947-26.533-14.009-40.773-8.117c-14.24,5.891-23.101,19.157-23.101,34.558v48.011c0,4.082-3.34,7.422-7.422,7.422h-61.19
		c-4.07,0-7.422-3.34-7.422-7.422V479.73c0-15.4-8.813-28.667-23.094-34.558c-4.778-1.995-9.689-2.969-14.561-2.969
		c-9.607,0-18.978,3.804-26.208,11.04l-33.915,33.955c-2.922,2.922-7.613,2.876-10.535,0l-43.221-43.232
		c-2.876-2.923-2.876-7.607,0-10.53l33.949-33.908c10.9-10.9,14.009-26.533,8.071-40.773c-5.886-14.241-19.117-23.102-34.552-23.102
		H190.85c-4.088,0-7.376-3.34-7.376-7.422v-61.189c0-4.07,3.288-7.422,7.376-7.422h48.011c15.435,0,28.666-8.808,34.552-23.095
		c5.938-14.235,2.829-29.879-8.071-40.768l-33.949-33.915c-2.876-2.922-2.876-7.613,0-10.53l43.221-43.227
		c2.922-2.876,7.613-2.876,10.535,0l33.915,33.903c10.901,10.901,26.527,14.061,40.769,8.124
		c14.281-5.891,23.094-19.117,23.094-34.558v-48.01c0-4.082,3.352-7.375,7.422-7.375h61.19c4.082,0,7.422,3.293,7.422,7.375v48.01
		c0,15.441,8.86,28.667,23.101,34.558c14.24,5.938,29.873,2.824,40.773-8.077l33.955-33.949c2.877-2.876,7.607-2.876,10.484,0
		l43.232,43.273c2.922,2.87,2.922,7.613,0,10.483l-33.909,33.915c-10.901,10.889-14.056,26.533-8.118,40.814
		c5.892,14.241,19.158,23.101,34.559,23.101h48.01c4.082-0.052,7.422,3.299,7.422,7.37V328.231z M658.468,328.231"/>
	<path d="M420.974,212.12c-47.181,0-85.549,38.373-85.549,85.549c0,47.123,38.368,85.484,85.549,85.484
		c47.123,0,85.485-38.361,85.485-85.484C506.459,250.493,468.097,212.12,420.974,212.12L420.974,212.12z M420.974,364.136
		c-36.691,0-66.523-29.827-66.523-66.467c0-36.692,29.832-66.524,66.523-66.524c36.641,0,66.467,29.832,66.467,66.524
		C487.44,334.309,457.614,364.136,420.974,364.136L420.974,364.136z M420.974,364.136"/>
</g>
</svg>
