<?xml version="1.0" encoding="utf-8"?>
<!-- Generator: Adobe Illustrator 16.0.0, SVG Export Plug-In . SVG Version: 6.00 Build 0)  -->
<!DOCTYPE svg PUBLIC "-//W3C//DTD SVG 1.1//EN" "http://www.w3.org/Graphics/SVG/1.1/DTD/svg11.dtd">
<svg version="1.1" id="Capa_1" xmlns="http://www.w3.org/2000/svg" xmlns:xlink="http://www.w3.org/1999/xlink" x="0px" y="0px"
	 width="841.89px" height="595.28px" viewBox="0 0 841.89 595.28" enable-background="new 0 0 841.89 595.28" xml:space="preserve">
<g>
	<g>
		<defs>
			<rect id="SVGID_1_" x="175" y="38.28" width="489.961" height="520.801"/>
		</defs>
		<clipPath id="SVGID_2_">
			<use xlink:href="#SVGID_1_"  overflow="visible"/>
		</clipPath>
		<path clip-path="url(#SVGID_2_)" d="M419.973,218.645c12.289,0,22.488-10.199,22.488-22.492V60.676
			c0-12.293-10.199-22.492-22.488-22.492c-12.555,0-22.493,9.938-22.493,22.492v135.477
			C397.48,208.707,407.418,218.645,419.973,218.645L419.973,218.645z M419.973,218.645"/>
	</g>
	<path d="M623.969,178.372c-27.199-41.067-63.465-71.61-108.801-90.497c-8.023-3.343-16.477,0.524-19.609,8.106
		c-3.145,7.59,0.281,16.683,7.844,19.883c40.039,16.937,71.656,43.414,95.461,79.246c23.801,35.824,35.832,75.324,35.832,118.477
		c0,29.027-5.758,57.012-17.004,83.43c-11.246,26.414-26.676,49.43-45.766,68.523c-19.094,19.09-42.109,34.52-68.523,45.77
		c-26.418,11.242-54.402,17-83.429,17c-29.032,0-57.02-5.758-83.434-17c-26.414-11.25-49.43-26.68-68.519-45.77
		c-19.094-19.094-34.528-42.109-45.77-68.523c-11.25-26.418-17.004-54.402-17.004-83.43c0-42.637,11.508-81.864,34.785-117.696
		c23.278-35.832,54.614-62.625,93.629-79.508c7.535-3.261,11.574-11.914,8.11-19.351c-3.606-7.746-12.356-11.399-19.875-8.106
		c-44.532,19.465-80.036,49.953-106.711,90.75c-26.676,40.797-40.016,85.524-40.016,133.911c0,33.215,6.43,64.906,19.355,94.934
		c12.965,30.125,30.665,56.164,52.309,77.941c21.77,21.906,47.84,39.539,77.941,52.309c30.313,12.859,61.981,19.352,95.196,19.352
		c33.218,0,64.839-6.582,94.937-19.352c30.32-12.867,56.426-30.402,78.203-52.309c21.645-21.777,39.117-47.91,52.047-77.941
		c12.965-30.121,19.613-61.719,19.613-94.934C664.77,264.414,651.172,219.43,623.969,178.372L623.969,178.372z M623.969,178.372"/>
</g>
</svg>
